<?xml version="1.0" encoding="UTF-8"?>
<!DOCTYPE svg PUBLIC "-//W3C//DTD SVG 1.1//EN" "http://www.w3.org/Graphics/SVG/1.1/DTD/svg11.dtd">
<!-- Creator: CorelDRAW -->
<svg xmlns="http://www.w3.org/2000/svg" xml:space="preserve" width="69.8028mm" height="86.3602mm" version="1.1" style="shape-rendering:geometricPrecision; text-rendering:geometricPrecision; image-rendering:optimizeQuality; fill-rule:evenodd; clip-rule:evenodd"
viewBox="0 0 6980.28 8636.02"
 xmlns:xlink="http://www.w3.org/1999/xlink"
 xmlns:xodm="http://www.corel.com/coreldraw/odm/2003">
 <defs>
  <style type="text/css">
   <![CDATA[
    .fil0 {fill:white}
   ]]>
  </style>
 </defs>
 <g id="Layer_x0020_1">
  <metadata id="CorelCorpID_0Corel-Layer"/>
  <path class="fil0" d="M3524.58 3261.65c20.87,17.93 8.33,1.25 26.86,25.65 55.14,72.63 -18.69,61.71 131.69,75.21l-75.67 67.69 19.76 99.29 -97.15 -53.86 -93.72 52.47 17.17 -115.23c-65.73,-33.85 -43.86,-24.55 -60.96,-57.12l94.71 -0.77 37.31 -93.33zm-960.8 589.21c43.75,92.61 317.35,248.52 410.65,285.65 182.98,72.81 365.82,111.23 585.08,103.1 343.2,-12.73 770.1,-191.13 931.24,-443.09l-958.87 -763.77 -617.49 513.34c-46.78,43.84 -64.88,54.51 -116.31,100.37 -53.63,47.84 -197.33,155.66 -234.3,204.4z"/>
  <path class="fil0" d="M2745.37 2891.21c15.82,-78.12 14.54,-63.32 45.13,-91.77 25.15,103.59 27.65,92.07 124.59,92.75 -19.74,42.77 -32.43,45.25 -65.49,61.66l18.59 115.65 -97.29 -47.91 -86.85 41.94 24.74 -113.56c-39.41,-18.24 -45.66,-19.2 -66.73,-56.83l103.31 -1.93zm-7.36 -368.11c-37.87,32.85 -22.93,35.54 -75.51,63.39l23.3 109.9c-39.33,-12.43 -63.78,-41.36 -101.21,-36.52 -23.91,3.09 -55.17,28.62 -96.64,37.21l31.26 -115.98c-40.11,-20.06 -46.54,-25.92 -71.7,-62.12l106.22 -2.35 45.98 -79.5 45.45 77.41 92.85 8.56zm6.99 -519.73c33,29.39 29.04,46.03 57.27,89.55l85.22 8.71 -67.63 75.39 25.42 95.1 -102.17 -43.13 -99.99 48.38 24.22 -113.31 -55.9 -65.97 98.33 -5.71 35.23 -89.01zm558.38 842.23c-39.56,-38.63 -88.8,-75.45 -136.31,-110.84 -229.78,-171.12 -15.88,-359.09 111.3,-412.89 -16.3,-38.82 8.11,-12.34 -32.44,-46.72l-745.33 -571.76c-46.58,-37.18 -211.75,-169.94 -262.78,-188.85 -9.7,368.34 1.82,744.21 -1.16,1113.71 -4.53,562.54 -48.21,480.28 126.69,978.91 51.5,-21.87 194.63,-140.86 251.05,-185.14l463.31 -378.73c43.15,-37.29 78.18,-62.15 121.34,-96.28 47.78,-37.77 85.31,-64.51 104.33,-101.41z"/>
  <path class="fil0" d="M4108.94 2893.57l107.81 -2c3.8,-14.6 3.58,-24.21 11.64,-42.12 16.92,-37.62 17.53,-27.41 23.48,-34.34 65.48,83.08 6.49,75.69 141.35,79.23 -29.17,63.02 -11.92,25.91 -69.87,72.78l23.56 105.53 -93.45 -43.7 -95.32 48.76 18.81 -96.34c-26.33,-34.73 -40.02,-37.3 -68.01,-87.8zm324.9 -466.12l37.9 88.87 107.09 7.23 -72.35 58.42 15.4 116.85 -94.7 -57.98 -105.45 50.82 28.87 -106.09 -66.76 -66.19 100.52 -3.95 49.48 -87.98zm-149.81 -421.84l36.1 89.33 84.5 6.37 -67.57 47.17 24.53 116.57c-136.73,-60.34 -57.76,-39.03 -189.96,-0.61l27.58 -112.52 -64.05 -53.77 96.31 -6.24 52.56 -86.3zm471.45 -483.28c-89.41,49.62 -415.64,308.26 -516.07,386.95 -115.36,90.37 -424.34,313.73 -498.16,388.92 62.96,63.15 236.89,159.42 230.2,275.79 -6.46,112.32 -163.58,218.99 -215.69,275.73 28.64,30.11 77.79,61.61 108.22,85.04l678.78 516.27c25.8,19.46 81.07,62.64 116.64,78.42 141.44,-163.55 96.08,-708.57 96.08,-955.54 0,-350.53 0,-701.06 0,-1051.58z"/>
  <path class="fil0" d="M3477.54 1747.98c36.33,-24.19 5.96,8.32 37.61,-47.07l10.62 -17.2c0.77,-4.7 4.04,-5.36 8.9,-9.38l37.82 71.37 104.05 5.25c-24.43,22.25 -47.83,52.35 -76.18,76.77l31.67 92.94 -100.78 -43.8 -102.04 46.95 23.19 -97.06c-22.9,-22.5 -47.75,-45.52 -73.2,-78.69l98.34 -0.08zm-972.3 -408.01c68.68,70.8 619.24,497.57 742.39,594.18 63.82,50.07 188.28,160.08 257.08,191.06 69.66,-36.49 416.28,-310.43 510.33,-386.07 92.19,-74.14 446.25,-341 494.37,-404.39l-2004.17 5.22z"/>
  <path class="fil0" d="M2439.33 900.14c11.33,62.27 114.06,260.04 142.04,298.41 275.58,-63.54 359.4,-184.82 882.59,-187.31 513.54,-2.45 608.88,123.96 884.83,187.53 37.77,-58.19 124.65,-220.92 135.04,-296.55 -583.01,-258.41 -1209.57,-290.97 -1828.46,-87.76 -77.01,25.29 -145.68,65.18 -216.04,85.68z"/>
  <path class="fil0" d="M5251.96 4950.41c197.6,-49.62 335.92,87.52 368.99,247.12 43.48,209.86 -65.05,385.58 -220.17,426.28 -416.2,109.2 -565.85,-568.7 -148.82,-673.4zm-441.23 381.17c45.76,680.37 1068.32,625.14 1015.5,-95.23 -49.05,-669.08 -1063.82,-623.16 -1015.5,95.23z"/>
  <path class="fil0" d="M6128.36 5792.22c82.08,-96.35 25.74,-509.74 40.64,-675.81 59.72,59.97 101.67,124.36 154,181.93 37.21,40.92 43.68,53.89 80.8,95.3 19.8,22.08 51.82,60.03 74,89.01 51.93,67.81 94.64,118.17 151.83,187.63 41.35,50.23 94.71,171.23 203.66,112.76 29.9,-18.94 16.47,9.48 34.4,-36.13 15.38,-39.09 7.95,-419.05 7.95,-469.67 0,-128.77 26.93,-462.86 -45.43,-498.19 -163.11,-29.03 -121.42,149.81 -120.02,280.84 1.32,123.9 9.6,283.42 -4.15,403.62 -12.57,-14.31 -20.12,-17.54 -35.96,-35.99l-182.2 -226.08c-20.79,-23.77 -50.13,-59.11 -73.71,-89.33 -47.8,-61.26 -97.83,-125.67 -145.94,-180.54 -38.02,-43.36 -102.4,-147.35 -157.11,-156.06 -127.44,-20.26 -116.32,102.11 -114.59,202.86l0.6 638.57c-0.65,116.16 -10.41,201.77 131.23,175.28z"/>
  <path class="fil0" d="M3360.32 5762.35c146.92,135.43 164.4,-61.81 159.28,-199.83 -5.54,-149.37 -2.94,-302.81 -1.67,-452.45 47.99,32.36 439.57,528.37 481.23,582.53 61.16,79.53 93.51,137.28 214.08,77.55 31.39,-140.96 37.3,-880.58 -10.13,-985.12 -177.27,-42.17 -145.57,109.01 -142.76,261.28 2.6,140.71 9.45,281.69 0.09,422.24 -67.02,-55.92 -323.22,-395.2 -404.06,-492.2 -48.7,-58.44 -84.53,-109.14 -133.51,-165.64 -56.58,-65.24 -160.56,-48.35 -174.01,58.19 -9.36,74.06 1.02,217.22 1.01,299.67 0,135.08 -16.31,483.56 10.45,593.78z"/>
  <path class="fil0" d="M4489.23 7942.46l142.38 484.45c233.55,7.59 178.25,28.07 233.75,-172.25 27.06,-97.69 42.15,-230.3 94.9,-304.51l-5.49 478.02 181.13 0 -2.66 -717.56 -250.69 4.32c-33.97,50.71 -124.92,400.79 -149.27,489.21 -57.23,-81.08 -104.22,-368.51 -157.77,-492.99l-257.08 1.86 1.22 715.64 175.42 -3.6 -5.84 -482.59z"/>
  <path class="fil0" d="M1140.18 5399.31c20.24,-83.34 101.31,-248.17 143.31,-326.64l142.48 325.5 -285.79 1.14zm-307.75 378.17c125.45,101.04 196.88,-99.17 222.56,-206.99l455.75 0.16c13.61,66 84.78,271.58 186.53,232.04 99.17,-79.5 26.81,-171.27 -19.18,-274.85 -41.93,-94.43 -78.02,-181.66 -118.51,-275.49 -43.1,-99.87 -80.72,-187.31 -122.63,-284.85 -48.21,-112.2 -59.17,-220.42 -200.95,-190.38 -55,60.65 -175.55,370.75 -221.27,482.7 -46.81,114.57 -205.22,403.32 -182.3,517.66z"/>
  <path class="fil0" d="M2417.94 4776.08c-164.88,-9.4 -123.25,130.3 -123.25,270.23 0,121.25 -8.47,277.18 2.78,394.37 46.06,480.02 767.83,512.71 827.09,-13.59l-0.63 -583.68c-14.99,-74.31 -41.84,-75.4 -123.99,-66.23 -75.86,38.42 -41.73,402.41 -43.6,540.99 -2.44,180.96 -59.98,315.45 -252.92,308.06 -190.96,-7.31 -221.76,-164.56 -219.56,-348.99 1.14,-94.91 3.07,-190.39 1.69,-285.28 -2.19,-150.8 9.98,-176.83 -67.61,-215.88z"/>
  <path class="fil0" d="M2503.06 7873.72c158.05,-14.53 214.5,48.54 209.39,202.33 -4.66,140.18 -62.04,199.36 -209.39,186.83l0 -389.16zm-192.95 552.81c336.05,0.23 595.82,10.41 605.83,-364.09 9.32,-348.81 -288.6,-374.32 -608.26,-349.59l2.43 713.68z"/>
  <path class="fil0" d="M3328.11 7868.75c35.11,56.66 63.11,201.75 70.88,265.31l-141.24 -1.22 70.36 -264.09zm-113.49 424.04l230.75 4.95 34.27 130.3 215.07 -3 -239.3 -708.63c-66.67,-22.73 -181.51,-13.74 -258.34,-4.03l-230.23 715.79 215.73 0.13 32.05 -135.51z"/>
  <path class="fil0" d="M83.81 4825.28c-20.42,150.1 -22.48,859.51 18.42,958.62 83.49,21.59 575.05,37.82 624.49,-10.89 28.91,-28.46 28.53,-93.12 -0.09,-122.16 -26.17,-26.58 -80.94,-28.59 -128.45,-29.69 -109.1,-2.52 -218.89,4.97 -328.95,3 -3.16,-94.24 11.23,-755.99 -14.19,-805.67 -39.21,-76.63 -123.44,-42.44 -171.23,6.79z"/>
  <path class="fil0" d="M3964.46 7869.56l229.36 -2.06 -1.41 -154.36 -419.79 -1.92c-0.87,181.25 -10.68,543.42 0.46,718.62l420.42 -5.79 -1.09 -153.7 -227.31 -2.15 0 -130.78 212.3 -2.8 2.6 -154.57 -213.28 -1.4 -1.62 -52.41 -0.64 -56.68z"/>
  <path class="fil0" d="M4611.62 5783.82c53.11,-98.55 26.5,-613.4 28.69,-805.45 1.05,-91.69 15.68,-180.24 -66.31,-200.31 -112.74,-27.59 -127.95,64.83 -126.59,159.54 1.32,90.9 1.97,180.79 1.97,271.72 0,473.57 -59.11,632.75 162.24,574.5z"/>
  <path class="fil0" d="M2621.71 6613.05c39.17,-18.72 14.13,19.84 40,-46.34l55.4 -161.72c24.21,-70.65 43.05,-155.18 82.69,-217.24l0.84 422.1 70.41 3.2 -4.62 -544.94 -92.69 0.53 -159.95 453.13 -155.12 -453.13 -103.55 3.41 -0.18 538.61 69.93 -6.36 1.85 -408.49c8.88,10.6 10.9,9.06 21.28,28.68 6.28,11.87 6.73,17.58 11.27,30.79l116.13 357.77 46.31 0z"/>
  <path class="fil0" d="M6742.1 6270.71c49.89,49.46 76.63,88.39 62.83,188.25 -8.47,61.19 -54.73,121.47 -127.45,100.96 -67.1,-18.93 -85.49,-104.95 -76.18,-182.56 10.46,-87.18 49.38,-113.72 140.8,-106.65zm59.2 -18.33c-55.48,-30.96 -107.95,-73.9 -191.34,-16.72 -194.26,133.22 0.76,534.83 188.97,338.73 18.73,49.52 -1.63,44.55 70.94,33.26l-2.39 -537.33 -63.84 -2.08 -2.34 184.14z"/>
  <path class="fil0" d="M4646.73 6280.63c150.34,-87.6 194.65,206.74 89.95,269.98 -141.95,85.74 -215.13,-197.04 -89.95,-269.98zm-54.79 301.19c56.68,30.26 112.89,64.55 189.06,12.33 169.19,-115.97 44.48,-516.27 -175.94,-350.26 -43.17,-27.7 -26.51,-25.08 -82.03,-26.2l-0.43 545.67 67.07 -2.23 2.27 -179.31z"/>
  <path class="fil0" d="M5824.45 6271.03c99.82,-8.72 136.56,21.01 145.24,119.46 19.98,226.58 -190.6,221.13 -206,52.91 -8.83,-96.47 11.26,-120.25 60.76,-172.37zm137.19 -19.48c-135.31,-107.11 -268.59,-8.75 -268.1,166.86 0.4,144.34 147.21,276.06 256.53,163.03l15.46 13.82c35.17,23.49 27.93,16.58 68.11,17.79l-4 -545.18 -62.29 2.3 -5.71 181.38z"/>
  <path class="fil0" d="M1774.34 6376.6c9.46,-64.85 41.46,-112.45 113.51,-110.03 73.97,2.47 88.22,40.3 97.95,110.03l-211.46 0zm222.48 109.28c-38.51,34.76 -54.53,98.08 -141.74,73.97 -58.64,-16.21 -77.61,-58.78 -85.38,-126.24l289.42 -0.68c-6.41,-317.88 -335.3,-268.36 -358.28,-52.74 -33.5,314.16 341.15,291.04 348.08,111.11l-52.1 -5.42z"/>
  <path class="fil0" d="M6240.81 6284.12c150.52,-100.42 197.49,214.53 88.54,269.86 -72.8,36.96 -128.66,-22.51 -142.88,-86.9 -18.46,-83.64 -4.25,-143.88 54.34,-182.96zm131.75 -29.47c-90.38,-121.61 -261.88,-12.26 -259.72,163.79 1.74,142.25 151.25,288.63 254.74,158.38 3.14,2.8 6.48,6.98 8.88,8.99 2.31,1.93 5.93,6.19 8.85,8.34l18.13 12.98c22.47,10.46 23.79,4.99 48.7,4.9l-3.35 -393.67c-63.67,-1.24 -49.37,-4.33 -76.23,36.29z"/>
  <polygon class="fil0" points="1854.72,8551.34 1932.58,8550.66 1933.42,8496.8 1933.61,7708.88 1932.48,7654.49 1854.72,7653.56 "/>
  <path class="fil0" d="M5045.36 6284.12c150.61,-100.51 197.51,214.49 88.56,269.87 -72.7,36.95 -128.65,-22.53 -142.88,-86.91 -18.38,-83.17 -4.36,-143.8 54.32,-182.96zm131.78 -29.49c-90.12,-121.56 -261.88,-12.32 -259.73,163.81 1.73,142.32 151.51,288.65 254.76,158.38 44.09,39.34 29.49,35.4 84.53,35.21l-3.36 -393.67c-63.63,-1.24 -49.36,-4.36 -76.2,36.27z"/>
  <path class="fil0" d="M868.85 6490.94c-17.78,242.24 445.61,104.26 290.28,-63.49 -50.85,-54.92 -225.59,-45.11 -221.39,-117.45 2.56,-44.19 72.98,-55.46 117.79,-37.92 76.19,29.82 -9.31,63.89 111.69,50.02 -28.66,-154.41 -242.86,-139.99 -286.65,-41.7 -73.18,164.29 196.35,150.38 226.59,198.95 14.25,74.11 -33.99,97.47 -110.52,81.88 -115.07,-23.43 -1.93,-82.16 -127.79,-70.29z"/>
  <path class="fil0" d="M3484.79 6290.54c28.69,-16.72 68.9,-21.95 114.82,-17.71 67.51,29.24 44.08,223.44 44.04,336l67.63 4.22 0 -235.45c0,-230.55 -189.45,-182.97 -253.14,-114.57 -14.07,-60.8 7.84,-44.11 -61.93,-45.4l-2.97 395.42 67.6 -4.32c0,-119.36 -10.27,-220.18 23.95,-318.19z"/>
  <path class="fil0" d="M2977.34 6217.69c-6.82,69.32 -15.34,294.79 13.63,347 19.33,34.84 63.37,56.21 119.49,55.56 59.27,-0.68 85.44,-35.06 119.7,-54.05l0.06 46.85 61.1 0 -4.39 -396 -61.23 3.79c-8.93,122.02 40.09,337.68 -101.46,339.61 -131.76,1.81 -77.04,-241.8 -85.84,-341.85l-61.06 -0.91z"/>
  <path class="fil0" d="M3856.4 305.28c52.19,73.45 86.89,99.39 150.94,162.57 61.26,-25.72 103.97,-81.85 134.8,-108.81l41.62 -40.18c-24.46,-40.79 -121.34,-150.96 -151.07,-171.05 -33.1,17.55 -155.37,116.3 -176.29,157.47z"/>
  <path class="fil0" d="M2749.57 301.72c47.05,75.46 101.86,87.56 141.86,168.14 51.73,-18.44 155.29,-108.58 185.7,-151 -18.05,-41.8 -119.51,-145.73 -154.21,-172.05 -66.22,44.09 -123.28,101.26 -173.35,154.91z"/>
  <path class="fil0" d="M2215.99 451.51c25.8,57.18 32.05,45.78 73.53,90.41 24.46,26.32 51.9,61.71 73.16,87.93 51.93,-21.11 158.33,-117.91 184.77,-152.36 -22.15,-27.76 -39.59,-58.91 -66.81,-85.91 -31.96,-31.72 -61.09,-51.99 -89.87,-80.7 -34.94,21.28 -51.33,34.86 -88.17,69 -31.41,29.1 -56.59,40.81 -86.61,71.63z"/>
  <path class="fil0" d="M776.63 6614.48c0,-74.43 -0.03,-148.87 0,-223.3 0.09,-211.27 21.6,-167.61 -54.09,-170.39 0,62.53 24.42,227.84 -17.58,264.64l-9.37 46.71c-36.28,18.68 -71.87,30.22 -131.19,22.8 -57.27,-102.51 -21.99,-213.73 -35.82,-337.75l-61.22 2.99c-5.05,65.16 -11.19,281.11 10.84,330.4 38.5,86.12 171.11,93.98 234.24,14.13l64.19 49.77z"/>
  <path class="fil0" d="M3293.17 255.36c25.38,26.37 44.76,51.43 70.66,82.26 34.79,41.43 45.59,48.58 86.54,84.22 54.11,-30.49 133.64,-102.79 173.65,-143.51 -24.6,-54.65 -26.82,-46.54 -72.57,-87.41 -41.07,-36.7 -34.83,-54.23 -89.33,-85.93l-168.95 150.37z"/>
  <path class="fil0" d="M4385.75 454.71c22.33,59.27 107.73,133.72 151.39,172.52l175.63 -140.36c-23.86,-54.64 -132.09,-158.24 -162.24,-177.95l-164.78 145.79z"/>
  <path class="fil0" d="M4296.31 6474.26c-119.58,-7.61 -42.7,83.28 -154.37,89.67 -146.04,8.37 -152.03,-274.68 -24.43,-295.45 47.63,-7.75 69.04,3.71 90.16,31.26 39.26,51.21 -15.09,48.25 84.39,36.16 -31.91,-185.89 -344.94,-184.78 -331.96,96.42 11.49,249.06 312.58,245.96 336.21,41.94z"/>
  <path class="fil0" d="M3376.65 2573.91c40.81,74.23 92.88,75.69 136.91,165.59 54.76,-23.28 157.06,-113.7 184.82,-152 -14.44,-30.6 -5.52,-22.18 -35.25,-50.18 -15.83,-14.9 -28.15,-20.93 -43.88,-36.8 -39.28,-39.63 -30.04,-56.84 -91.45,-76.78 -66.41,73.93 -102.65,82.49 -151.15,150.17z"/>
  <path class="fil0" d="M1248.98 6270.48c24.59,21.18 10.86,-8.35 23.33,25.61 27.15,152.67 -89.34,338.47 135.79,317.79l2.08 -52.37 -67.57 -15.11c-12.57,-410.43 10.05,-202.55 63.53,-304.65 -23.64,-33.89 6.39,-22.97 -65.8,-24.06l-2.56 -131.72 -65.43 27.56 -0.04 87.47c-49.56,42.81 -23.18,-11.01 -48.32,40.75l24.99 28.73z"/>
  <path class="fil0" d="M5364.25 6068.27c-13.33,98.4 -4.62,246.13 -4.73,350.08 -0.15,141.07 -26.18,215.21 136.21,194.99l1.66 -50.43 -69 -22.27 -2.69 -469.23 -61.45 -3.14z"/>
  <path class="fil0" d="M5527.34 4492.68c-115.47,-23.36 -314.23,155.21 -254.89,211.79 46.25,44.1 383.4,-84.22 254.89,-211.79z"/>
  <polygon class="fil0" points="111.07,6612.68 183.66,6604.3 181.99,6070.89 111.27,6070.19 "/>
  <path class="fil0" d="M1681.26 6230.04c-66.2,-29.64 -104.23,-35.2 -134.02,26.82l-12.04 -17.06c-1.59,-1.79 -3.97,-5.93 -5.88,-7.64l-13.9 -10.94c-16.11,-7.4 -26.58,-2.33 -45.57,-1.61l-0.49 390.24 67.53 3.2c0,-118.98 -19.19,-253.34 41.28,-329.23l87.58 -2.77 15.51 -51.01z"/>
  <polygon class="fil0" points="297.76,6613.05 339.5,6613.08 365.37,6610.9 362.24,6069.17 300.37,6068.21 297.76,6119.49 "/>
  <path class="fil0" d="M4114.87 571.74c17.03,48.19 57.28,95.07 96.24,120.4 48.74,-22.94 86.18,-56.95 110.18,-101.58 -32.8,-49.91 -43.46,-72.57 -96.6,-98.43 -46.61,23.06 -45.96,38.86 -109.82,79.61z"/>
  <path class="fil0" d="M3617.26 495.47c23.85,51.03 51.93,69.95 87.25,108.89 40.93,-19.47 91.36,-58.31 120.18,-95.31l-88.32 -107.53c-53.12,19.17 -85.92,55.43 -119.11,93.95z"/>
  <path class="fil0" d="M3112.95 509.05c34.66,59.48 47.17,59.89 92.9,104.78 40.27,-16.24 83.58,-61.35 111.68,-91.2 -17.49,-38.31 -14.77,-31.5 -40.3,-57.83l-49.43 -46.12c-1.63,-1.27 -5.58,-3.67 -8.37,-5.49 -37.86,25.03 -85.05,63.02 -106.48,95.86z"/>
  <path class="fil0" d="M2607.62 590.56l40.81 54.52c23.1,23.98 29.14,32.21 54.79,52.75 33.24,-15.06 25.56,-14.89 55.17,-37.97 36.5,-28.45 33.26,-17.24 53.75,-55.72 -35.12,-52.94 -49.11,-60.04 -95.34,-104.98 -42.79,17.45 -79.75,57.29 -109.18,91.4z"/>
  <path class="fil0" d="M4363.21 6611.12l54.09 3.36 1.58 -333.42c-3.42,-80.75 17.09,-57.6 -55.67,-60.27l0 390.33z"/>
  <path class="fil0" d="M3819.83 6611.12l54.09 3.36c0,-74.43 -0.03,-148.87 0,-223.3 0.08,-211.27 21.6,-167.61 -54.09,-170.39l0 390.33z"/>
  <path class="fil0" d="M5558.66 6611.12l54.09 3.36c0,-74.43 -0.03,-148.87 0,-223.3 0.09,-211.27 21.59,-167.61 -54.09,-170.39l0 390.33z"/>
  <path class="fil0" d="M5558.66 6611.12l0 -390.33c75.68,2.78 54.18,-40.88 54.09,170.39 -0.03,74.43 0,148.87 0,223.3 28.88,-55.87 15.44,-344.86 9.91,-400.18l-53.09 -7.05c-43.87,39.36 -23.61,206.31 -24.58,306.33 -0.12,12.84 -1.56,43.92 -0.5,54.81 5.79,59.82 3.62,24.05 14.17,42.73z"/>
  <path class="fil0" d="M3392.92 590.56c18.16,32.23 27.42,41.12 53.32,66.6 43.84,-14.79 49.14,-15.12 75,-66.6 -22.07,-44.95 -18.88,-38.68 -57.47,-63.74 -47.15,21.75 -48.14,16.52 -70.85,63.74z"/>
  <path class="fil0" d="M2441.99 739.99c19.84,37.11 18.57,35.71 57.46,64.74 44,-15.4 42.49,-13.42 71.45,-64.74l-53.11 -64.94c-56.15,25.29 -55.96,24.43 -75.8,64.94z"/>
  <path class="fil0" d="M2895.24 630c18.66,43.55 24.36,48.67 66.08,70.82 38.54,-18.3 50.1,-26.79 68.15,-72.1l-65.06 -54.43 -69.17 55.71z"/>
  <path class="fil0" d="M4363.21 6611.12l0 -390.33c72.76,2.67 52.25,-20.48 55.67,60.27l-1.58 333.42c20.44,-39.53 14.2,-48.04 13.69,-101.02l-3.79 -299.16 -53.07 -7.05c-40.75,36.56 -31.41,367.59 -10.92,403.87z"/>
  <path class="fil0" d="M3873.99 617.73c14.84,35.82 30.87,49.9 65.43,71.7 36.28,-21.88 37.16,-18.18 63.7,-58.12 -16.97,-32.81 -16.31,-33.49 -50.12,-65.49 -40.97,12.16 -49.87,18.63 -79.01,51.91z"/>
  <path class="fil0" d="M3109.64 135.09c18.58,47.52 12.91,29.28 55.45,78.08 54.86,-17.65 44.81,-21.05 76.33,-57.32l-58.81 -70.94 -72.97 50.18z"/>
  <path class="fil0" d="M4342.13 722.57c14.66,28.94 5.19,16.58 24.92,38.29 8.48,9.33 21.8,19.28 34.24,32.41 39.95,-16.06 50.98,-31.61 74.83,-58.97 -29.08,-32.94 -16.73,-38.65 -61.25,-66.07l-72.74 54.34z"/>
  <path class="fil0" d="M3694.24 140.7c5.44,11.97 -1.92,38.27 68.58,69.72l56.97 -64.5c-31.1,-41.48 -18.5,-33.68 -56.97,-61.25l-68.58 56.03z"/>
  <path class="fil0" d="M704.96 6485.43c42,-36.8 17.58,-202.11 17.58,-264.64 75.69,2.78 54.18,-40.88 54.09,170.39 -0.03,74.43 0,148.87 0,223.3 1.75,-3.38 4.48,-7.36 5.35,-10.08l4.56 -390.1 -53.09 -7.05c-52.54,47.15 -23.09,204.54 -28.49,278.18z"/>
  <path class="fil0" d="M3819.83 6611.12l0 -390.33c75.69,2.78 54.17,-40.88 54.09,170.39 -0.03,74.43 0,148.87 0,223.3l9.9 -400.18 -53.08 -7.05c-43.86,39.36 -23.61,206.31 -24.58,306.33 -0.12,12.84 -1.55,43.92 -0.5,54.81 5.79,59.82 3.62,24.05 14.17,42.73z"/>
  <path class="fil0" d="M3824.28 6143.86l44.53 2.23c11.88,-88.31 24.27,-72.05 -50.03,-74.68l5.5 72.45z"/>
  <path class="fil0" d="M4367.66 6143.86l44.53 2.23c11.89,-88.31 24.27,-72.05 -50.02,-74.68l5.49 72.45z"/>
  <path class="fil0" d="M5563.11 6143.86l44.53 2.23c11.88,-88.31 24.27,-72.05 -50.03,-74.68l5.5 72.45z"/>
  <path class="fil0" d="M5563.11 6143.86l-5.5 -72.45c74.3,2.63 61.91,-13.63 50.03,74.68 14.35,-16.61 22.37,23.35 15.02,-81.22l-53.09 -7.06c-19.8,17.77 -26.18,0.18 -26.06,48.11 0.17,59.62 7.68,24.8 19.6,37.94z"/>
  <path class="fil0" d="M3824.28 6143.86l-5.5 -72.45c74.3,2.63 61.91,-13.63 50.03,74.68 14.35,-16.61 22.38,23.35 15.01,-81.22l-53.08 -7.06c-19.79,17.77 -26.18,0.18 -26.05,48.11 0.16,59.62 7.68,24.8 19.59,37.94z"/>
  <path class="fil0" d="M4367.66 6143.86l-5.49 -72.45c74.29,2.63 61.91,-13.63 50.02,74.68 14.35,-16.61 22.38,23.35 15.01,-81.22l-53.07 -7.06c-19.8,17.77 -26.19,0.18 -26.06,48.11 0.16,59.62 7.68,24.8 19.59,37.94z"/>
 </g>
</svg>
