<?xml version="1.0" encoding="UTF-8"?>
<!DOCTYPE svg PUBLIC "-//W3C//DTD SVG 1.1//EN" "http://www.w3.org/Graphics/SVG/1.1/DTD/svg11.dtd">
<!-- Creator: CorelDRAW -->
<svg xmlns="http://www.w3.org/2000/svg" xml:space="preserve" width="214.895mm" height="42.6932mm" version="1.1" style="shape-rendering:geometricPrecision; text-rendering:geometricPrecision; image-rendering:optimizeQuality; fill-rule:evenodd; clip-rule:evenodd"
viewBox="0 0 21489.48 4269.32"
 xmlns:xlink="http://www.w3.org/1999/xlink"
 xmlns:xodm="http://www.corel.com/coreldraw/odm/2003">
 <defs>
  <style type="text/css">
   <![CDATA[
    .fil0 {fill:#4F2F7B}
    .fil1 {fill:#4F2F7B;fill-rule:nonzero}
   ]]>
  </style>
 </defs>
 <g id="Capa_x0020_1">
  <metadata id="CorelCorpID_0Corel-Layer"/>
  <g id="_2169177473968">
   <path class="fil0" d="M1317.56 3332.4c23.46,-14.55 41.68,-78.02 50.53,-104.72 27.77,25.46 34.08,87.12 64.94,104.72l97.1 0c-8.18,15.45 -68.16,62.46 -87.41,73.46l28.48 106.64c-38.11,-15.55 -61.01,-43.14 -97.19,-63.16l-104.2 63.97c0.85,-37.99 25.27,-70.12 22.48,-111.92 -27.66,-26.24 -56.21,-42.44 -76.18,-70.29l101.45 1.3zm-922.39 498.99c467.19,485.5 1271.98,505.84 1761.62,113.94 66.28,-53.04 103.05,-84.63 155.89,-145.54 15.37,-17.71 10.56,-7.33 19.7,-28.55l-963.06 -766.56c-35.8,35.91 -83.16,67.97 -121.88,102.05l-730.89 616.87c-21.11,16.19 -41.88,35.11 -61.74,53.65 -20.95,19.55 -39.46,29.72 -59.64,54.14z"/>
   <path class="fil0" d="M578.28 2867.49c8.86,-32.14 21.55,-80.25 42.63,-101.14l36.8 100.75 103.88 0c-10.81,19.71 -56.56,56.37 -75.31,72.66l25.2 112.27c-37.16,-15.48 -66.27,-44.22 -99.9,-56.37 -33.84,16.74 -60.79,40.56 -96.32,53.7l32.14 -112.06c-35.02,-21.87 -79.34,-69.24 -79.41,-69.29l110.29 -0.52zm-191.33 -375.84c23.1,-15.54 26.52,-63.03 44.93,-89.47 21.49,23.66 25.15,70.26 51.34,89.41l101.47 0.45c-9.76,14.34 -66.83,63.54 -84.83,74.76l27.5 114.99c-21.97,-10.03 -81.12,-51.12 -100.81,-49.58 -17.04,1.33 -76.77,40.77 -106.2,48.9l36.51 -115.26c-25.29,-10.67 -65.45,-54.07 -82.65,-73.88l112.74 -0.32zm161.23 -423.99c8.05,-29.53 24.12,-76.95 43.04,-97.15l45.99 97.43 94.31 1.72c-6.67,19.82 -60.01,62.24 -77.49,73.91l33.78 111.4c-18.74,-7.57 -38.55,-19.44 -56.19,-29.08 -78.32,-42.83 -39.18,-15.36 -158.45,36.73 4.37,-19.39 32.73,-102.49 31.68,-112.69 -2.44,-23.91 -53.23,-57.17 -64.55,-79.88l107.88 -2.39zm-342.93 1519.85c47.31,-21.27 502.31,-404.48 588.65,-472.38 40.6,-31.92 77.58,-62.25 116.79,-94.89 36.14,-30.07 223.29,-173.32 235.58,-198.86l-140.44 -109.36c-37.14,-29.23 -101.15,-76.91 -106.07,-144.85 -8.99,-124.2 124.66,-216.73 218.45,-280.9 -17,-23.89 -218.82,-171.99 -259.46,-203.96l-651.45 -503.67c-28.76,-22.13 -101.49,-81.92 -133.23,-95.41 0,371.97 0,743.94 0,1115.91 0,452.53 -47.74,593.73 131.18,988.37z"/>
   <path class="fil0" d="M2086.11 2777.24c7.76,8.5 -0.94,-3.78 9.25,12.61 14.07,22.59 21.54,54.09 43.7,77.55l103.08 2.91c-9.69,17.59 -61.31,60.95 -82.18,73.77l29.24 111.13c-25.48,-7.95 -85.55,-49.03 -100.17,-47.7 -9.56,0.87 -69.92,41.46 -100.24,48.79l28.12 -104.17 -82.42 -82.8 114.34 -2.14 37.28 -89.95zm138.78 -287.2c8.12,-23.44 25.63,-81.39 45.12,-97.57l39.94 99.79 115.13 0.56c-13.02,10.16 -21.08,22.79 -36.38,34.96 -67.42,53.64 -39.22,37.26 -22.23,148.38 -38.7,-12.63 -63.22,-40.24 -99.41,-60l-112.61 58.75 35.17 -115.88c-23.19,-16 -58.66,-40.26 -77.02,-67.08l112.29 -1.91zm-162.85 -420.38c31.92,-24.67 30.07,-76.74 59.15,-100.1l35.08 99.77 95.49 0.36 -74.59 66.55c1.11,39.32 19.1,77.57 29.7,113.54 -24.47,-11.47 -75.86,-50.45 -99.24,-49.09 -23.11,1.35 -75.56,37.08 -104.88,45.97l39.04 -109.61c-15.83,-16.43 -65.01,-54.24 -86.05,-69.08l106.3 1.69zm-485.37 202.16c32.96,47.64 238.88,149.86 235.03,269.36 -2.24,69.79 -72.29,149.69 -118.72,195.82 -12.04,11.96 -20.9,17.17 -35.08,29.25 -21.48,18.29 -48.76,43.2 -69.19,58.73l908.58 689.15c88.41,-137.7 99.09,-334.84 95.56,-504.22l-0.17 -1518.38c-173.74,126.62 -336.23,255.81 -507.6,386.1 -84.64,64.35 -166.9,126.4 -254.49,194.73 -42.41,33.08 -84.35,65.03 -127.13,97.49 -26.66,20.23 -110.67,78.99 -126.79,101.97z"/>
   <path class="fil0" d="M1368.1 1631.24c52.11,106.26 -2.55,89.54 158.86,91.43 -18.43,11.36 -77.82,61.27 -90.64,80.99l40.9 98.32c-28.11,-8.2 -90.74,-50.93 -108.73,-50.76 -15.63,0.14 -72.8,46.32 -106.45,55.97l30.66 -111.11c-32.61,-17.55 -62.94,-53.08 -87.88,-74.3l126.68 -0.92 36.6 -89.62zm-24.87 472.11c20.85,-9.49 973.75,-753.87 1000.49,-782.99 9.11,-9.91 1.6,0.87 9.52,-12.84l-316.87 0.5c-535.17,0.61 -1119.79,7.72 -1649.41,-0.73l-52.17 0.55c15.47,21.65 38.28,36.54 58.44,52.85l817.86 645.42c37.28,29.05 90.79,75.68 132.14,97.24z"/>
   <path class="fil0" d="M273.82 881.12c18.92,48.28 118.33,259.23 145.22,291.23 49.93,-11.87 214.99,-91.43 381.18,-130.44 394.4,-92.57 818.64,-78.79 1199.87,59.45 61.96,22.47 129.7,55.29 185.89,72.21 27.89,-55.18 124.87,-239.35 138.61,-288.03 -41.74,-52.97 -340.15,-136.98 -435.44,-160.54 -257.73,-63.72 -390.45,-68.91 -648.61,-68.91 -312.94,0 -733.14,95.29 -966.72,225.03z"/>
   <path class="fil0" d="M9378.49 1975.58c-80.4,-591.25 684.2,-686.87 760.74,-147.74 35.4,249.34 -106.69,461.9 -308.49,499.68 -253.84,47.53 -423.22,-138.53 -452.25,-351.94zm279.13 -715.33c-330.35,51.26 -570.7,354.28 -519.42,739.52 44.41,333.6 328.76,604.56 719.25,546.19 326.62,-48.82 570.98,-354.19 522.89,-736.66 -42.24,-335.94 -334.45,-609.31 -722.72,-549.05z"/>
   <path class="fil0" d="M10801.8 1677.72l315.36 381.58c34.79,42.38 69.63,84.58 106.18,130.94 68.98,87.5 134.98,168.22 204.1,254.47 33.9,42.31 57.9,91.64 136.93,90.2 75.41,-1.38 112.79,-48 112.79,-124.6l0 -1027.55c0,-97.28 -96.07,-147.76 -164.9,-91.83 -56.25,45.71 -38.68,160.19 -38.68,249.92 0,193.65 7.19,401.41 -0.96,593.33l-682.93 -838.15c-61.32,-49.19 -148.11,-24.34 -177.98,27.48 -26.95,46.74 -15.5,177.8 -15.5,241.05l0 758.8c0,81.01 -12.94,171.16 54.99,202.38 77.1,35.43 140.14,-15.32 149.03,-80.87l1.57 -767.15z"/>
   <path class="fil0" d="M7539.78 1674.22c36.15,28.7 519.83,638.75 571.77,703.34 21.38,26.59 101.78,130.1 114.6,138.42 60.62,39.32 142.88,16.79 174.65,-36.63 28.18,-47.38 13.92,-667.67 13.92,-748.8 0,-84.31 -0.01,-168.63 0,-252.94 0.01,-84.89 9.9,-170.69 -57.88,-199.15 -77.83,-32.68 -141.1,22.98 -145.49,95.93 -12.86,213.49 16.15,531.47 -1.66,764.23 -136.16,-152.56 -414.7,-513.4 -565.27,-700.83l-114.4 -138.74c-58.26,-52.2 -144.13,-27.97 -178.4,20.64 -33.44,47.45 -17.85,178.93 -17.85,244.87l0 758.8c-0.01,92.22 -14.63,175.56 59.3,203.75 193.48,73.78 146.22,-238.77 146.22,-338.12 0,-170.76 -3.06,-344.36 0.49,-514.77z"/>
   <path class="fil0" d="M6105.16 1279.04c-62.31,26.53 -71.92,49.19 -71.81,135.08l0.41 632.91c16.14,571.16 727.25,637.43 949.22,271.22 112.86,-186.17 76.12,-516.37 76.12,-761.6 0,-123.09 32.01,-318.55 -133.63,-285.2 -107.96,21.73 -77.81,183.36 -77.81,340.53 0,137.97 4.02,281.96 -0.19,419.17 -9.35,304.85 -343.24,354.23 -483.85,228.74 -91.46,-81.63 -98.86,-175.11 -98.85,-323.83 0,-77.31 12.86,-555.75 -12.65,-607.27 -21.08,-42.58 -79.11,-78.65 -146.96,-49.75z"/>
   <path class="fil0" d="M4784.66 1630.26l183.8 411.14 -361.64 1.33c13.98,-56.18 64.18,-156.9 87.89,-210.46 27.17,-61.38 58.63,-149.33 89.95,-202.01zm-273.67 621.97l551.29 0c18.57,60.33 93.37,262.61 161.75,285.98 47.55,16.25 91.69,-4.34 114.07,-31.1 55.69,-66.58 -4.18,-160.19 -31.98,-224.91l-365.59 -851.7c-32.47,-76.76 -50.64,-163.26 -142,-167.61 -99.18,-4.72 -117.18,79.06 -148.74,153l-363.45 853.81c-25.54,58.68 -89.51,168.1 -54.7,233.26 39.23,73.44 151.88,47.01 187.82,-36.9 29.86,-69.71 64.85,-144.56 91.53,-213.83z"/>
   <path class="fil0" d="M3537.25 2319.93c-12.14,-154.22 -1.45,-577.3 -1.45,-779.08 0,-76.29 15.91,-181.75 -29.81,-232.85 -53.17,-59.44 -137.63,-44.87 -181.46,7.83 -38.25,45.97 -21.92,174.79 -21.92,240.82l0 782.52c-0.08,94.23 -5.66,164.84 73.31,189.54 50.53,15.81 429.01,6.1 513.59,6.1 89.5,0 169.26,15.92 216.98,-41.91 51.2,-62.05 11.17,-148.91 -54.06,-166.1 -91.99,-24.24 -393.28,2.72 -515.18,-6.87z"/>
   <path class="fil0" d="M8770.37 1275.09c-110.42,29.92 -81.02,169.24 -81.02,289.47l0 750.9c-0.01,55.78 -11.23,125.95 18.11,169.21 21.68,31.97 70.05,62.37 131.5,45.38 112.15,-31.02 83.57,-168.64 83.57,-285.73l0 -750.9c0.01,-55.43 10.24,-125.63 -16.92,-170.5 -22.04,-36.41 -72.35,-64.87 -135.24,-47.83z"/>
   <path class="fil0" d="M1689.41 277.05c35.65,30.18 46.75,54.39 77.01,82.66 26.35,24.61 60.02,58.61 75.02,84.2 20.15,-7.67 118.15,-91.34 137.32,-110.14 16.82,-16.5 27.62,-25.66 47.56,-36.29 -8.21,-25.71 -139.33,-166.4 -155.21,-181.31 -29.36,11.82 -106.83,90.09 -137.03,113.98 -18.85,14.91 -33.26,20.96 -44.67,46.9z"/>
   <path class="fil0" d="M584.89 269.42c13.35,24.65 56.62,65.91 75.42,85.9 16.98,18.06 67.89,71.86 77.23,88.17 32.01,-16.5 148.96,-119.9 181.29,-154.82 -9.57,-19.13 -56.06,-67.41 -73,-86.76 -29.24,-33.37 -52.82,-50.21 -78.61,-86.13 -29.64,11.72 -160.72,129.33 -182.33,153.64z"/>
   <path class="fil0" d="M49.99 429.87l115.83 131.42c14.22,16.58 27.4,26.58 41.43,42.06l48.05 -35.74c32.85,-28.01 113.39,-94.72 131.05,-118.49 -19.89,-28.8 -136.92,-157.16 -161.43,-172.08 -26.81,28.63 -153.01,125.4 -174.93,152.83z"/>
   <path class="fil0" d="M2217.07 429.87c6.09,15.05 139.72,162.68 159.45,173.68l134.91 -115.65c19.21,-16.23 24.28,-17.94 41.8,-38.78l-157.45 -170.9c-29.4,15.29 -61.68,50.38 -90.89,73.47l-87.82 78.18z"/>
   <path class="fil0" d="M1127.8 226.07l157.67 171.3c24.78,-10.13 163.05,-133.11 177.9,-153.63 -45.37,-57.44 -45.36,-49.44 -78.17,-86.76 -14.91,-16.95 -24.03,-27.74 -38.91,-44.78 -14.21,-16.28 -27.62,-24.71 -39.99,-38.96 -14.01,8.06 -33.84,25.46 -45.98,36.3l-132.52 116.53z"/>
   <path class="fil0" d="M1209.24 2549.01c43.43,47.76 119.41,118.61 150.46,168.44 24.66,-10.43 168.18,-137.79 181.7,-157.23 -18.76,-15.99 -60.21,-59.38 -78.65,-80.53 -28.85,-33.07 -47.25,-53.03 -81.01,-83.73 -18.23,11.16 -23.54,16.22 -41.25,33.51 -25.81,25.19 -117.92,92.76 -131.25,119.54z"/>
   <path class="fil0" d="M9915.96 924.31c-78.43,37.95 -120.11,94.71 -184.19,143.45 -107.04,81.45 -16.25,173.02 87.82,118.92 46.13,-23.99 180.11,-89.98 207.49,-116.05 79.52,-75.67 -7.86,-196.27 -111.12,-146.32z"/>
   <path class="fil0" d="M1950.94 558.23c8.74,16.35 35.3,40.83 48.42,56.27 16.65,19.59 33.03,35.58 47.45,53.61 31.75,-13.85 88.36,-70.06 117.53,-97.05 -15.6,-30.2 -70.88,-88.27 -102.3,-112.1 -24.3,20.16 -37.94,27.8 -57.99,47.71 -12.31,12.21 -13.84,13.31 -27.27,23.94 -16.53,13.08 -16.41,10.31 -25.84,27.62z"/>
   <path class="fil0" d="M1450.73 468.37c9.74,17.61 84.61,99.39 104.29,109.51l113.13 -98.67 -102.27 -110.34c-23.51,22.26 -101.31,71.72 -115.15,99.5z"/>
   <path class="fil0" d="M439.5 563.45c10.75,21.79 81.87,94.06 101.48,110.7 18.15,-9.23 102.92,-80.66 113.13,-96.67l-100.29 -112.1c-25.06,14.79 -100.24,81.01 -114.32,98.07z"/>
   <path class="fil0" d="M945.9 474.79c10.76,28.26 74.3,89.71 95.26,114.74 32.2,-12.61 84.46,-72.64 117.95,-93.09 -14.36,-44.73 -75.06,-75.98 -97.46,-118.31l-115.75 96.66z"/>
   <path class="fil0" d="M1226.1 567.04c32.87,22.4 39.97,45.24 65.78,63.19 16.48,-8.74 3,-0.63 19.29,-14.19l51.12 -44.98c-9.08,-30.64 -40.74,-53.37 -63.99,-74.82 -21.2,12.98 -61.77,43.3 -72.2,70.8z"/>
   <path class="fil0" d="M2178.38 699.42c9.69,14.18 17.91,25.23 31.18,38.71 16.21,16.45 21.07,25.01 40.21,32.28 24.39,-27.46 45.87,-36.89 65.8,-64.57l-59.44 -70.68 -42.8 29.56c-11.39,9.91 -28.39,26.35 -34.95,34.7z"/>
   <path class="fil0" d="M273.82 710.65c20.19,25.98 44.15,44.14 61.37,71.42 18.39,-8.3 67.04,-49.48 77.04,-70.23 -20.01,-17.24 -45.49,-52.22 -63.79,-64.97 -27.72,15.05 -55.47,41.25 -74.62,63.78z"/>
   <path class="fil0" d="M1706.27 587.53c13.67,31.29 43.84,58.69 66.96,78.99l73 -63.37 -57.77 -71.38c-34.27,13.54 -50.33,38.42 -82.19,55.76z"/>
   <path class="fil0" d="M729.5 607.57c17.59,22.21 47.03,53.19 69.78,69.81 19.45,-19.47 47.3,-37.82 70.82,-61.39 -18.27,-25.28 -43.49,-57.94 -65.98,-71.01 -24.68,13.69 -53.32,45.44 -74.62,62.59z"/>
   <path class="fil0" d="M946.3 115.38c5.73,16.95 -1.99,1.95 11.74,19.28 5.52,6.98 9.63,10.7 15.03,17.02 11.48,13.45 19.1,22.2 27.61,36.7 27.79,-7.18 67.41,-44.68 83.04,-61.74l-65.81 -73.04c-20.19,16.46 -51.66,40.06 -71.61,61.78z"/>
   <path class="fil0" d="M1528.54 115.38c6.68,14.67 47.29,62.45 67.38,71.81l62 -63.98c-9.45,-23.33 -38.93,-60.8 -66.78,-73.21 -22.49,31.56 -43.85,40.48 -62.6,65.38z"/>
   <path class="fil1" d="M3342.81 3538.64l0 -670.53 88.08 0 0 670.53 -88.08 0zm230.69 0l0 -670.53 81.59 0 0 670.53 -81.59 0zm522.11 0l0 -72.26c-37.4,55.09 -88.08,82.56 -152.2,82.56 -28.28,0 -54.7,-5.46 -79.26,-16.39 -24.57,-11.08 -42.81,-24.81 -54.71,-41.35 -11.89,-16.7 -20.24,-36.99 -25.03,-61.04 -3.24,-16.23 -4.95,-41.82 -4.95,-76.79l0 -300.77 81.58 0 0 268.93c0,42.92 1.71,71.95 4.95,86.79 5.1,21.69 15.92,38.54 32.61,50.87 16.53,12.34 36.93,18.58 61.34,18.58 24.41,0 47.28,-6.24 68.6,-18.89 21.32,-12.64 36.47,-29.96 45.43,-51.66 8.81,-21.7 13.29,-53.38 13.29,-94.74l0 -259.88 81.58 0 0 486.04 -73.23 0zm168.87 -145.16l80.66 -13.1c4.48,32.62 17.16,57.59 37.86,75.07 20.7,17.33 49.76,26.07 86.83,26.07 37.54,0 65.36,-7.65 83.6,-23.1 18.07,-15.3 27.19,-33.4 27.19,-54.16 0,-18.58 -8.19,-33.25 -24.42,-43.87 -11.43,-7.33 -39.24,-16.54 -83.43,-27.93 -59.65,-15.14 -100.89,-28.25 -124.08,-39.33 -23.02,-11.24 -40.48,-26.54 -52.38,-46.21 -11.89,-19.51 -17.92,-41.2 -17.92,-64.93 0,-21.69 4.94,-41.67 14.68,-60.09 9.88,-18.42 23.17,-33.71 40.02,-45.89 12.67,-9.36 29.98,-17.32 51.76,-23.88 21.94,-6.55 45.27,-9.83 70.3,-9.83 37.7,0 70.78,5.46 99.2,16.54 28.59,10.93 49.59,25.92 63.19,44.64 13.45,18.89 22.87,44.02 27.97,75.55l-79.73 11.24c-3.54,-25.29 -14.06,-45.11 -31.36,-59.32 -17.31,-14.2 -41.71,-21.23 -73.39,-21.23 -37.24,0 -63.97,6.25 -79.89,18.74 -15.91,12.48 -23.95,27.15 -23.95,43.85 0,10.62 3.24,20.29 9.9,28.88 6.63,8.74 16.99,16.08 31.2,21.85 8.19,3.12 31.99,10.15 71.84,21.08 57.48,15.45 97.66,28.25 120.54,38.07 22.86,9.84 40.78,24.36 53.76,43.09 13.13,18.88 19.63,42.3 19.63,70.39 0,27.31 -7.88,53.07 -23.8,77.26 -15.92,24.19 -38.79,42.93 -68.61,56.19 -29.97,13.27 -63.81,19.82 -101.52,19.82 -62.41,0 -110.16,-13.1 -142.91,-39.17 -32.76,-26.23 -53.62,-64.93 -62.74,-116.29zm673.06 71.65l11.14 72.73c-22.88,4.84 -43.43,7.34 -61.35,7.34 -29.51,0 -52.38,-4.68 -68.76,-14.2 -16.22,-9.53 -27.67,-21.86 -34.3,-37.31 -6.64,-15.45 -9.89,-47.91 -9.89,-97.39l0 -280.02 -60.27 0 0 -63.68 60.27 0 0 -120.18 81.58 -49.48 0 169.66 81.58 0 0 63.68 -81.58 0 0 284.7c0,23.57 1.39,38.71 4.33,45.41 2.78,6.72 7.41,12.03 13.9,16.09 6.49,3.9 15.76,5.93 27.81,5.93 8.97,0 20.86,-1.1 35.54,-3.28zm79.58 73.51l0 -486.04 73.24 0 0 74.45c18.7,-34.49 36,-57.28 51.91,-68.21 15.92,-11.08 33.38,-16.54 52.39,-16.54 27.5,0 55.47,8.74 83.9,26.06l-29.05 76.02c-19.78,-11.24 -39.55,-16.86 -59.33,-16.86 -17.78,0 -33.69,5.46 -47.75,16.23 -14.06,10.78 -24.11,25.76 -30.13,44.95 -9.11,29.19 -13.6,61.19 -13.6,96l0 253.94 -81.58 0zm637.83 -157.33l84.36 11.24c-13.13,49.48 -37.69,88.03 -73.54,115.34 -35.86,27.32 -81.58,41.05 -137.37,41.05 -70.14,0 -125.77,-21.84 -166.87,-65.55 -41.1,-43.55 -61.65,-104.89 -61.65,-183.71 0,-81.48 20.7,-144.85 62.27,-189.8 41.57,-45.11 95.49,-67.58 161.77,-67.58 64.13,0 116.51,22 157.14,66.18 40.64,44.17 61.04,106.29 61.04,186.36 0,4.84 -0.16,12.17 -0.47,21.85l-358.31 0c3.08,53.23 17.93,94.12 44.81,122.37 26.73,28.25 60.25,42.46 100.27,42.46 29.83,0 55.32,-7.96 76.33,-23.88 21.17,-15.92 37.86,-41.36 50.22,-76.33zm-267 -132.05l267.93 0c-3.55,-40.89 -13.92,-71.48 -30.75,-91.93 -25.8,-31.68 -59.49,-47.61 -100.74,-47.61 -37.39,0 -68.76,12.65 -94.25,37.93 -25.35,25.29 -39.41,59.16 -42.19,101.61zm720.35 289.38l0 -670.53 131.64 0 156.98 474.65c14.52,44.17 25.04,77.26 31.68,99.27 7.57,-24.35 19.47,-60.25 35.53,-107.54l159.77 -466.38 117.59 0 0 670.53 -84.36 0 0 -560.96 -193.76 560.96 -79.11 0 -191.61 -571.26 0 571.26 -84.35 0zm1078.19 0l0 -72.26c-37.39,55.09 -88.08,82.56 -152.2,82.56 -28.28,0 -54.69,-5.46 -79.26,-16.39 -24.57,-11.08 -42.8,-24.81 -54.7,-41.35 -11.9,-16.7 -20.24,-36.99 -25.03,-61.04 -3.24,-16.23 -4.95,-41.82 -4.95,-76.79l0 -300.77 81.58 0 0 268.93c0,42.92 1.71,71.95 4.95,86.79 5.1,21.69 15.91,38.54 32.61,50.87 16.52,12.34 36.92,18.58 61.34,18.58 24.41,0 47.27,-6.24 68.6,-18.89 21.32,-12.64 36.46,-29.96 45.43,-51.66 8.8,-21.7 13.29,-53.38 13.29,-94.74l0 -259.88 81.58 0 0 486.04 -73.24 0zm201.33 0l0 -486.04 73.23 0 0 68.99c35.23,-52.92 86.23,-79.29 152.82,-79.29 29.05,0 55.63,5.31 79.89,15.76 24.25,10.46 42.49,24.35 54.54,41.36 12.05,17.02 20.54,37.31 25.33,60.72 2.94,15.29 4.49,41.99 4.49,80.07l0 298.43 -81.58 0 0 -295.31c0,-33.55 -3.1,-58.69 -9.44,-75.23 -6.33,-16.55 -17.6,-29.81 -33.67,-39.8 -16.07,-9.84 -35.08,-14.82 -56.71,-14.82 -34.61,0 -64.44,11.08 -89.62,33.39 -25.18,22.17 -37.7,64.47 -37.7,126.59l0 265.18 -81.58 0zm515.61 -576.89l0 -93.64 81.58 0 0 93.64 -81.58 0zm0 576.89l0 -486.04 81.58 0 0 486.04 -81.58 0zm520.24 -177.93l79.73 11.24c-8.81,55.41 -31.05,98.65 -67.06,130.01 -36,31.37 -80.35,46.98 -132.73,46.98 -65.67,0 -118.51,-21.69 -158.37,-65.08 -40.02,-43.39 -59.95,-105.51 -59.95,-186.36 0,-52.45 8.65,-98.18 25.81,-137.52 17.14,-39.17 43.25,-68.67 78.48,-88.18 35.08,-19.67 73.24,-29.5 114.65,-29.5 52.07,0 94.87,13.27 127.94,39.95 33.21,26.7 54.54,64.62 63.81,113.63l-78.8 12.17c-7.57,-32.62 -20.87,-57.12 -40.18,-73.67 -19.15,-16.39 -42.32,-24.66 -69.53,-24.66 -41.1,0 -74.47,14.84 -100.27,44.49 -25.65,29.81 -38.48,76.64 -38.48,140.94 0,65.24 12.36,112.54 37.09,142.04 24.87,29.5 57.16,44.33 96.87,44.33 32.15,0 58.87,-9.84 80.2,-29.66 21.48,-19.66 35.07,-50.1 40.79,-91.15zm149.26 -398.96l0 -93.64 81.59 0 0 93.64 -81.59 0zm0 576.89l0 -486.04 81.59 0 0 486.04 -81.59 0zm205.96 186.37l0 -672.41 74.18 0 0 63.84c17.45,-24.66 37.23,-43.24 59.32,-55.57 21.94,-12.33 48.67,-18.57 80.03,-18.57 41.11,0 77.26,10.61 108.63,31.99 31.37,21.23 55.01,51.36 71.08,90.06 15.91,38.87 23.95,81.32 23.95,127.68 0,49.48 -8.8,94.12 -26.42,133.92 -17.62,39.65 -43.27,70.08 -76.95,91.31 -33.53,21.07 -68.91,31.68 -106,31.68 -27.19,0 -51.6,-5.77 -73.08,-17.32 -21.64,-11.55 -39.25,-26.07 -53.16,-43.71l0 237.1 -81.58 0zm74.18 -426.43c0,62.28 12.51,108.33 37.38,138.14 25.03,29.82 55.32,44.8 90.85,44.8 36.16,0 67.06,-15.45 92.71,-46.36 25.81,-30.9 38.63,-78.67 38.63,-143.44 0,-61.81 -12.52,-108.01 -37.7,-138.76 -25.19,-30.75 -55.16,-46.04 -90.08,-46.04 -34.61,0 -65.21,16.38 -91.78,49.01 -26.74,32.77 -40.01,80.23 -40.01,142.65zm828.96 240.06l-76.03 0 0 -62.9 -1.85 0c-14.84,24.35 -33.22,42.77 -55.17,54.94 -22.08,12.18 -48.82,18.26 -80.19,18.26 -30.59,0 -58.25,-6.08 -83.28,-18.41 -24.87,-12.33 -46.36,-29.82 -64.28,-52.13 -17.92,-22.33 -31.83,-49.01 -41.71,-80.08 -9.74,-31.05 -14.69,-65.24 -14.69,-102.7 0,-38.7 4.95,-73.67 14.69,-105.04 9.88,-31.22 23.64,-57.91 41.25,-79.76 17.61,-22.01 38.94,-38.86 63.81,-50.72 24.88,-11.87 52.69,-17.8 83.13,-17.8 57.01,0 100.75,22.16 130.87,66.34l1.86 0 0 -56.04 81.59 0 0 486.04zm-201.96 -57.12c17.62,0 34.15,-3.59 49.6,-10.92 15.61,-7.35 29.21,-18.43 40.79,-33.1 11.59,-14.83 20.86,-33.24 27.51,-55.72 6.65,-22.32 9.89,-48.54 9.89,-78.67 0,-28.87 -2.94,-55.25 -8.66,-79.13 -5.72,-23.89 -14.06,-44.18 -25.03,-61.18 -11.12,-16.86 -24.88,-29.82 -41.26,-39.18 -16.53,-9.21 -35.22,-13.9 -56.39,-13.9 -21.48,0 -40.18,4.53 -56.25,13.74 -15.91,9.06 -29.36,21.85 -40.01,38.24 -10.81,16.39 -18.7,36.06 -24.11,58.84 -5.25,22.79 -7.88,47.92 -7.88,75.24 0,31.06 3.56,58.22 10.66,81.47 7.11,23.26 16.69,42.61 28.74,57.91 12.06,15.45 26.12,27.01 41.88,34.65 15.91,7.81 32.75,11.71 50.52,11.71zm412.09 -80.39c0,11.87 0.31,22.17 1.07,30.6 0.78,8.58 2.64,15.6 5.73,20.91 2.93,5.31 7.57,9.21 13.75,11.86 6.17,2.65 14.52,3.91 25.02,3.91 5.42,0 11.13,-0.32 17,-1.1 6.03,-0.77 12.36,-1.71 19.02,-2.49l10.8 73.04c-12.05,2.5 -23.01,4.22 -33.22,5.47 -10.03,1.25 -19.31,1.87 -27.8,1.87 -28.59,0 -50.54,-3.75 -65.67,-11.24 -15.3,-7.49 -26.43,-17.8 -33.54,-30.9 -7.1,-13.11 -11.12,-28.72 -12.21,-46.83 -1.07,-18.11 -1.54,-38.09 -1.54,-59.78l0 -528.34 81.59 0 0 533.02zm153.74 -439.38l0 -93.64 81.58 0 0 93.64 -81.58 0zm0 576.89l0 -486.04 81.58 0 0 486.04 -81.58 0zm516.54 0l0 -61.65c-30.45,47.92 -75.25,71.95 -134.43,71.95 -38.32,0 -73.55,-10.61 -105.53,-31.99 -32.15,-21.23 -57.01,-51.04 -74.79,-89.13 -17.62,-38.24 -26.43,-82.1 -26.43,-131.73 0,-48.38 8.04,-92.24 23.97,-131.74 16.06,-39.33 40.01,-69.61 72,-90.52 31.82,-21.08 67.67,-31.53 107.07,-31.53 29.05,0 54.85,6.24 77.42,18.57 22.55,12.33 40.93,28.56 55.15,48.39l0 -241.15 81.59 0 0 670.53 -76.02 0zm-257.73 -242.39c0,62.12 12.98,108.48 39.09,139.22 25.96,30.75 56.7,46.05 92.09,46.05 35.69,0 65.97,-14.68 91.01,-44.02 24.87,-29.34 37.39,-74.14 37.39,-134.39 0,-66.18 -12.68,-114.88 -38.16,-145.93 -25.34,-31.07 -56.71,-46.52 -93.94,-46.52 -36.31,0 -66.61,14.83 -91.02,44.64 -24.26,29.81 -36.46,76.8 -36.46,140.95zm850.28 242.39l-76.02 0 0 -62.9 -1.85 0c-14.84,24.35 -33.23,42.77 -55.17,54.94 -22.09,12.18 -48.82,18.26 -80.19,18.26 -30.59,0 -58.26,-6.08 -83.28,-18.41 -24.87,-12.33 -46.35,-29.82 -64.28,-52.13 -17.92,-22.33 -31.83,-49.01 -41.71,-80.08 -9.74,-31.05 -14.69,-65.24 -14.69,-102.7 0,-38.7 4.95,-73.67 14.69,-105.04 9.88,-31.22 23.64,-57.91 41.24,-79.76 17.62,-22.01 38.95,-38.86 63.82,-50.72 24.88,-11.87 52.69,-17.8 83.13,-17.8 57.01,0 100.74,22.16 130.87,66.34l1.86 0 0 -56.04 81.58 0 0 486.04zm-201.95 -57.12c17.62,0 34.15,-3.59 49.6,-10.92 15.6,-7.35 29.2,-18.43 40.79,-33.1 11.59,-14.83 20.86,-33.24 27.5,-55.72 6.65,-22.32 9.9,-48.54 9.9,-78.67 0,-28.87 -2.94,-55.25 -8.66,-79.13 -5.71,-23.89 -14.06,-44.18 -25.03,-61.18 -11.12,-16.86 -24.88,-29.82 -41.26,-39.18 -16.53,-9.21 -35.22,-13.9 -56.39,-13.9 -21.49,0 -40.17,4.53 -56.25,13.74 -15.91,9.06 -29.35,21.85 -40.01,38.24 -10.82,16.39 -18.7,36.06 -24.1,58.84 -5.26,22.79 -7.89,47.92 -7.89,75.24 0,31.06 3.56,58.22 10.66,81.47 7.11,23.26 16.7,42.61 28.75,57.91 12.05,15.45 26.11,27.01 41.87,34.65 15.91,7.81 32.75,11.71 50.52,11.71zm640.15 57.12l0 -61.65c-30.44,47.92 -75.25,71.95 -134.43,71.95 -38.32,0 -73.54,-10.61 -105.53,-31.99 -32.14,-21.23 -57.01,-51.04 -74.78,-89.13 -17.62,-38.24 -26.43,-82.1 -26.43,-131.73 0,-48.38 8.03,-92.24 23.96,-131.74 16.07,-39.33 40.01,-69.61 72,-90.52 31.83,-21.08 67.67,-31.53 107.08,-31.53 29.04,0 54.85,6.24 77.41,18.57 22.55,12.33 40.94,28.56 55.16,48.39l0 -241.15 81.58 0 0 670.53 -76.02 0zm-257.73 -242.39c0,62.12 12.98,108.48 39.09,139.22 25.96,30.75 56.7,46.05 92.09,46.05 35.69,0 65.98,-14.68 91.01,-44.02 24.87,-29.34 37.39,-74.14 37.39,-134.39 0,-66.18 -12.67,-114.88 -38.16,-145.93 -25.34,-31.07 -56.71,-46.52 -93.94,-46.52 -36.31,0 -66.6,14.83 -91.02,44.64 -24.26,29.81 -36.46,76.8 -36.46,140.95z"/>
   <path class="fil0" d="M19038.89 3292.9l2.17 42.81 503.91 -0.55c26.09,-445.49 -11.06,-1063.03 -27.86,-1511.97 36.56,45.61 418.79,1444.07 439.04,1510.37l541.73 2.23 426.2 -1510.45c-10.65,443.2 -26.64,1085.61 -10.57,1508.25l524.51 1.7 1.46 -2100.84 -747.03 -5.65c-34.02,9.54 -208.71,666.9 -228.81,740.64 -46.47,170.55 -191.26,630.53 -215.24,753.27 -32.1,-32.87 -48.62,-132.39 -62.36,-177.64l-362.6 -1234.07c-23.4,-86.58 -13.64,-82.2 -66.11,-82.2l-718.44 0 0 2064.1z"/>
   <path class="fil0" d="M13691.19 2868.1l-3.65 -1177.39c209.52,0 360.32,-12.55 487.05,114.54 197.19,197.76 181.77,751.07 -6.36,939.04 -112.94,112.85 -275.84,123.81 -477.04,123.81zm-573.76 424.8l2.72 42.84c693.82,-0.13 1519.33,111.68 1741.14,-719.16 91.09,-341.18 51.91,-753.47 -125.72,-1007.22 -157.16,-224.51 -450.62,-380.56 -851.23,-380.56l-766.91 0 0 2064.1z"/>
   <path class="fil0" d="M16123.05 1593.72l224.77 878.22 -439.98 -0.12c28.74,-143.32 75.53,-288.7 111.16,-431.63 37.07,-148.73 67.26,-295.07 104.05,-446.47zm-1064.82 1741.95l622.28 -0.28 107.36 -393.6 680.2 0.64 104.69 393.82 619.24 -0.58c-9.71,-94.56 -132.85,-420.7 -170.62,-534.23 -60.21,-180.98 -116.51,-353.02 -174.98,-531.89l-262.22 -798.35c-28.35,-85.02 -63.63,-250.96 -111.16,-250.96l-707.04 0c-45.56,0 -78.34,163.53 -105.41,245.11l-260.65 800.29c-48.85,150.29 -331.68,989.03 -341.69,1070.03z"/>
   <path class="fil0" d="M17422.45 3333.56l1248.67 2.17 2.85 -464.77 -681.42 -2.19 0.36 -392c147.59,-11.47 523.32,20.08 629.79,-9.2l0 -446.26 -630.11 -6.2 0.38 -325.21 681 -2.09 0 -459.01 -1251.59 0.15 0.07 2104.61z"/>
   <path class="fil0" d="M12529.09 3747.19l33.96 7.28 87.91 -1.2 34.43 -4.45 -0.27 -2499.14c-41.45,-11.4 -114.58,-11.4 -156.03,0l0 2497.51z"/>
  </g>
 </g>
</svg>
